<svg width="280" height="184" viewBox="0 0 280 184" fill="none" xmlns="http://www.w3.org/2000/svg">
<rect width="280" height="184" fill="#FDD510"/>
<g clip-path="url(#clip0_1_353)">
<path fill-rule="evenodd" clip-rule="evenodd" d="M73.608 101.96C75.4427 101.96 76.556 100.957 76.556 99.3598C76.556 97.8249 75.4741 96.7608 73.608 96.7608H70.6311V101.96H73.608ZM73.2181 92.6889C74.8724 92.6889 75.9543 91.7808 75.9543 90.2759C75.9543 88.8364 75.0235 87.8956 73.1573 87.8956H70.6311V92.6889H73.2181ZM73.971 83.7931C78.1809 83.7931 80.6168 86.3308 80.6168 89.7452C80.6168 91.6275 79.6788 93.2326 78.3738 94.0746C78.0827 94.262 78.0984 94.6877 78.4085 94.839C79.9666 95.5986 81.2774 97.2881 81.2774 99.7038C81.2774 103.338 78.6315 106 74.6022 106H66.4291C66.1923 106 66 105.8 66 105.552V84.24C66 83.9934 66.1923 83.7931 66.4291 83.7931H73.971ZM96.6695 97.7302H94.8911V105.552C94.8911 105.8 94.6887 106 94.4379 106H90.3249C90.0741 106 89.871 105.8 89.871 105.552V84.24C89.871 83.9934 90.0741 83.7931 90.3249 83.7931H98.7975C103.244 83.7931 106.103 86.7995 106.103 90.7474C106.103 93.5862 104.603 95.7825 102.11 96.8344C101.87 96.9366 101.756 97.2043 101.873 97.4346L105.902 105.351C106.053 105.649 105.834 106 105.497 106H100.989C100.815 106 100.656 105.901 100.581 105.747L96.6695 97.7302ZM97.8455 93.4703C99.9092 93.4703 101.021 92.3435 101.021 90.778C101.021 89.1185 99.9092 88.0837 97.8455 88.0837H94.8911V93.4703H97.8455ZM127.646 101.489H119.7C119.511 101.489 119.342 101.608 119.278 101.787L117.894 105.702C117.831 105.88 117.662 106 117.472 106H113.235C112.922 106 112.706 105.687 112.816 105.396L120.84 84.082C120.905 83.9076 121.072 83.7931 121.258 83.7931H126.367C126.554 83.7931 126.721 83.9082 126.786 84.0833L134.72 105.396C134.829 105.689 134.613 106 134.301 106H129.876C129.685 106 129.517 105.88 129.454 105.702L128.067 101.787C128.004 101.608 127.835 101.489 127.646 101.489ZM121.012 96.9792H126.396L124.154 90.5105C124.016 90.1106 123.452 90.1085 123.31 90.5071L121.012 96.9792ZM153.426 101.489H145.48C145.291 101.489 145.122 101.608 145.059 101.787L143.674 105.702C143.611 105.88 143.442 106 143.253 106H139.015C138.703 106 138.487 105.687 138.597 105.396L146.62 84.082C146.686 83.9076 146.853 83.7931 147.039 83.7931H152.148C152.335 83.7931 152.502 83.9082 152.567 84.0833L160.5 105.396C160.61 105.689 160.393 106 160.082 106H155.656C155.467 106 155.298 105.88 155.235 105.702L153.848 101.787C153.785 101.608 153.616 101.489 153.426 101.489ZM146.793 96.9792H152.177L149.934 90.5098C149.796 90.1106 149.232 90.1085 149.09 90.5071L146.793 96.9792ZM181.553 83.7931H185.861C186.172 83.7931 186.389 84.1017 186.282 84.394L178.486 105.706C178.421 105.882 178.253 106 178.065 106H173.579C173.391 106 173.223 105.883 173.159 105.706L165.331 84.394C165.224 84.1024 165.44 83.7931 165.751 83.7931H170.248C170.439 83.7931 170.609 83.9144 170.671 84.0949L175.505 98.1805C175.644 98.5845 176.216 98.5838 176.353 98.1792L181.129 84.0963C181.19 83.915 181.361 83.7931 181.553 83.7931ZM202.557 78C208.746 78 214 82.5472 214 89.6016C214 96.6252 208.746 101.172 202.557 101.172C196.338 101.172 191.084 96.6252 191.084 89.6016C191.084 82.5472 196.338 78 202.557 78ZM202.557 96.2822C205.605 96.2822 208.899 94.2122 208.899 89.5709C208.899 84.9296 205.605 82.8289 202.557 82.8289C199.479 82.8289 196.184 84.9296 196.184 89.5709C196.184 94.2122 199.479 96.2822 202.557 96.2822Z" fill="#131416"/>
</g>
<defs>
<clipPath id="clip0_1_353">
<rect width="148" height="28" fill="white" transform="translate(66 78)"/>
</clipPath>
</defs>
</svg>
