<svg width="18" height="18" viewBox="0 0 18 18" fill="none" xmlns="http://www.w3.org/2000/svg">
<path d="M11.1795 11.475C11.1485 11.1957 11.0554 10.994 10.8692 10.8078C10.52 10.4432 9.9071 10.2026 9.18555 10.2026C8.46401 10.2026 7.85108 10.4354 7.50194 10.8078C7.32349 11.0018 7.22263 11.1957 7.1916 11.475C7.12953 12.0181 7.16832 12.4837 7.23039 13.2362C7.29246 13.95 7.40884 14.9043 7.55625 15.8664C7.66487 16.5569 7.75022 16.9293 7.8278 17.1931C7.9597 17.6276 8.43297 18 9.18555 18C9.93814 18 10.4192 17.6198 10.5433 17.1931C10.6209 16.9293 10.7062 16.5569 10.8149 15.8664C10.9623 14.8966 11.0787 13.95 11.1407 13.2362C11.2105 12.4837 11.2416 12.0181 11.1795 11.475Z" fill="#0C0D0E"/>
<path d="M11.0946 7.51847C11.0946 8.57364 10.2411 9.42708 9.18595 9.42708C8.13079 9.42708 7.27734 8.57364 7.27734 7.51847C7.27734 6.46331 8.13079 5.60986 9.18595 5.60986C10.2411 5.60986 11.0946 6.47107 11.0946 7.51847Z" fill="#0C0D0E"/>
<path d="M9.16271 1.22537e-05C4.70929 0.0155294 1.06276 3.63103 1.00069 8.08445C0.954141 11.6922 3.25844 14.7801 6.47825 15.9129C6.55583 15.9439 6.63342 15.8741 6.62566 15.7965C6.58687 15.5172 6.54032 15.2379 6.50928 14.9586C6.49376 14.8577 6.4317 14.7801 6.34635 14.7336C3.80154 13.6241 2.02482 11.0715 2.05586 8.11549C2.09465 4.2362 5.26015 1.07845 9.13168 1.04742C13.0963 1.01639 16.3316 4.22844 16.3316 8.18531C16.3316 11.1103 14.5627 13.6241 12.0411 14.7336C11.948 14.7723 11.886 14.8577 11.8782 14.9586C11.8394 15.2379 11.8006 15.5172 11.7618 15.7965C11.7463 15.8818 11.8317 15.9439 11.9093 15.9129C15.098 14.7956 17.3868 11.7543 17.3868 8.18531C17.3713 3.66982 13.686 -0.00774632 9.16271 1.22537e-05Z" fill="#0C0D0E"/>
<path d="M8.97552 2.71536C6.07381 2.82398 3.74624 5.22138 3.70745 8.12309C3.68417 10.0317 4.63848 11.7231 6.10485 12.7239C6.17468 12.7705 6.27554 12.7162 6.27554 12.6308C6.25226 12.2972 6.25226 12.0024 6.26778 11.692C6.27554 11.5912 6.23674 11.4981 6.15916 11.4282C5.26692 10.5903 4.72382 9.39549 4.75486 8.07654C4.81692 5.74896 6.68674 3.85587 9.01431 3.76277C11.5436 3.66191 13.6229 5.69465 13.6229 8.19291C13.6229 9.46532 13.0798 10.6136 12.2186 11.4282C12.1488 11.4981 12.11 11.5912 12.11 11.692C12.1255 11.9946 12.1177 12.2894 12.1022 12.6231C12.0945 12.7084 12.1953 12.7705 12.2729 12.7162C13.716 11.7308 14.6703 10.0627 14.6703 8.18516C14.6781 5.09724 12.0945 2.59122 8.97552 2.71536Z" fill="#0C0D0E"/>
</svg>
