<svg width="280" height="184" viewBox="0 0 280 184" fill="none" xmlns="http://www.w3.org/2000/svg">
<rect width="280" height="184" fill="white"/>
<g clip-path="url(#clip0_1_333)">
<path d="M81.1479 86.2228C81.3152 86.2075 81.4464 86.0694 81.4464 85.9016V85.5729C81.4464 85.3976 81.304 85.2554 81.1284 85.2554H73.6831C73.5075 85.2554 73.3651 85.3976 73.3651 85.5729V85.9013C73.3651 86.0693 73.4965 86.2074 73.664 86.2224C75.219 86.3618 75.7705 86.8263 75.7705 88.2249V94.8045C75.7705 94.9491 75.6725 95.0758 75.5319 95.1106C72.6981 95.8106 70.4031 95.741 67.3991 95.1041C67.253 95.0731 67.1488 94.9439 67.1488 94.7947V88.2249C67.1488 86.8263 67.7004 86.3618 69.2554 86.2224C69.4228 86.2074 69.5542 86.0693 69.5542 85.9013V85.5729C69.5542 85.3976 69.4118 85.2554 69.2362 85.2554H61.818C61.6424 85.2554 61.5 85.3976 61.5 85.5729V85.9013C61.5 86.0693 61.6314 86.2074 61.7988 86.2224C63.3509 86.3619 63.8784 86.8264 63.8784 88.2249V101.38C63.8784 102.553 63.3476 103.052 61.7846 103.262C61.6234 103.284 61.5 103.42 61.5 103.582V103.924C61.5 104.099 61.6424 104.241 61.818 104.241H69.2362C69.4118 104.241 69.5542 104.099 69.5542 103.924V103.582C69.5542 103.42 69.4308 103.284 69.2696 103.263C67.7037 103.052 67.1488 102.553 67.1488 101.38V96.6799C67.1488 96.4628 67.3622 96.3096 67.57 96.3732C70.1158 97.1517 72.8091 97.276 75.3314 96.4011C75.5436 96.3275 75.7705 96.4815 75.7705 96.7058V101.38C75.7705 102.553 75.2156 103.052 73.6496 103.263C73.4885 103.284 73.3651 103.42 73.3651 103.582V103.924C73.3651 104.099 73.5075 104.241 73.6831 104.241H81.1284C81.304 104.241 81.4464 104.099 81.4464 103.924V103.582C81.4464 103.42 81.3233 103.284 81.1624 103.262C79.6191 103.051 79.0409 102.552 79.0409 101.38V88.2249C79.0409 86.8274 79.6155 86.3626 81.1479 86.2228Z" fill="#131416"/>
<path d="M87.9259 90.2256C83.9799 90.2256 81.25 93.0871 81.25 97.7574C81.25 101.348 83.4931 104.614 87.5473 104.614C90.4842 104.614 92.4962 102.792 93.2714 100.588C93.3242 100.437 93.2483 100.273 93.1021 100.208L92.8825 100.111C92.7368 100.046 92.567 100.1 92.4762 100.23C91.6667 101.386 90.3037 102.266 88.6554 102.266C86.2274 102.266 84.5555 100.351 84.299 97.2266C84.2841 97.0457 84.4293 96.8936 84.6109 96.8936H93.119C93.2955 96.8936 93.4386 96.7497 93.433 96.5735C93.3119 92.9767 91.5754 90.2256 87.9259 90.2256ZM87.4934 91.4404C89.2484 91.4404 90.042 92.991 90.2277 95.3168C90.2426 95.4983 90.0969 95.6517 89.9148 95.6517H84.6499C84.4636 95.6517 84.3169 95.492 84.339 95.3074C84.6181 92.9406 85.6615 91.4404 87.4934 91.4404Z" fill="#131416"/>
<path d="M109.301 103.249C108.274 103.249 107.632 102.763 107.632 101.575V90.5432C107.632 90.3677 107.49 90.2256 107.314 90.2256H106.505C106.398 90.2256 106.299 90.2787 106.24 90.367L105.501 91.4737C105.38 91.6555 105.115 91.6633 104.965 91.5046C104.274 90.7759 103.225 90.2256 101.604 90.2256C97.9016 90.2256 94.8477 93.0871 94.8477 97.8654C94.8477 101.51 96.9289 104.614 100.605 104.614C101.911 104.614 103.038 104.032 103.83 103.256C104.058 103.033 104.523 103.185 104.523 103.504V103.979C104.523 104.155 104.666 104.297 104.841 104.297H105.199L109.557 104.2C109.73 104.197 109.869 104.056 109.869 103.883V103.566C109.869 103.391 109.726 103.249 109.551 103.249H109.301ZM101.659 102.725C99.1451 102.725 98.0909 99.7281 98.0909 96.8665C98.0909 93.5731 99.5232 91.4944 101.415 91.4944C103.686 91.4944 104.523 93.5191 104.523 95.6788V101.479C104.523 101.568 104.487 101.652 104.42 101.711C103.707 102.332 102.818 102.725 101.659 102.725Z" fill="#131416"/>
<path d="M115.549 85.5681C115.549 85.3927 115.407 85.2505 115.231 85.2505H110.948C110.773 85.2505 110.63 85.3927 110.63 85.5681V85.7913C110.63 85.9466 110.743 86.0791 110.896 86.1046L110.955 86.1144C112.117 86.2763 112.441 86.8162 112.441 87.7611V101.645C112.441 102.697 111.632 103.005 110.566 103.238C110.419 103.27 110.312 103.4 110.312 103.551V103.919C110.312 104.094 110.455 104.237 110.63 104.237H117.042C117.218 104.237 117.36 104.094 117.36 103.919V103.55C117.36 103.399 117.254 103.27 117.108 103.236C116.104 103.003 115.549 102.694 115.549 101.645V85.5681Z" fill="#131416"/>
<path d="M126.681 102.571C126.599 102.406 126.395 102.347 126.233 102.435C125.745 102.7 125.258 102.887 124.583 102.887C123.259 102.887 122.394 102.131 122.394 100.43V92.0551C122.394 91.8798 122.536 91.7376 122.712 91.7376H126.157C126.333 91.7376 126.475 91.5954 126.475 91.42V90.9213C126.475 90.7459 126.333 90.6037 126.157 90.6037H122.712C122.536 90.6037 122.394 90.4616 122.394 90.2861V86.6624C122.394 86.4869 122.252 86.3447 122.076 86.3447H119.576C119.401 86.3447 119.259 86.4869 119.259 86.6624V90.2861C119.259 90.4616 119.116 90.6037 118.941 90.6037H117.631C117.455 90.6037 117.312 90.7459 117.312 90.9213V91.42C117.312 91.5954 117.455 91.7376 117.631 91.7376H118.941C119.116 91.7376 119.259 91.8798 119.259 92.0551V100.511C119.259 103.238 120.637 104.615 123.069 104.615C124.614 104.615 125.813 103.675 126.627 103.021C126.743 102.927 126.778 102.764 126.711 102.63L126.681 102.571Z" fill="#131416"/>
<path d="M213.423 102.571C213.341 102.406 213.136 102.347 212.974 102.435C212.487 102.7 211.999 102.887 211.324 102.887C210 102.887 209.135 102.131 209.135 100.43V92.0551C209.135 91.8798 209.278 91.7376 209.453 91.7376H212.898C213.074 91.7376 213.216 91.5954 213.216 91.42V90.9213C213.216 90.7459 213.074 90.6037 212.898 90.6037H209.453C209.278 90.6037 209.135 90.4616 209.135 90.2861V86.6624C209.135 86.4869 208.993 86.3447 208.817 86.3447H206.318C206.143 86.3447 206 86.4869 206 86.6624V100.511C206 103.238 207.378 104.615 209.811 104.615C211.355 104.615 212.555 103.675 213.368 103.021C213.485 102.927 213.52 102.764 213.453 102.63L213.423 102.571Z" fill="#131416"/>
<path d="M140.744 101.645V94.788C140.744 91.8184 139.096 90.2257 136.609 90.2257C135.186 90.2257 133.963 90.8899 132.734 92.1836C132.529 92.3993 132.15 92.2603 132.15 91.9628V85.5681C132.15 85.3927 132.007 85.2505 131.832 85.2505H127.549C127.373 85.2505 127.23 85.3927 127.23 85.5681V85.7939C127.23 85.948 127.341 86.0799 127.493 86.1067L127.69 86.1413C128.69 86.3033 129.041 86.7623 129.041 87.6801V101.645C129.041 102.695 128.508 103.004 127.484 103.237C127.337 103.271 127.23 103.4 127.23 103.551V103.919C127.23 104.094 127.373 104.237 127.549 104.237H133.642C133.818 104.237 133.961 104.094 133.961 103.919V103.55C133.961 103.399 133.854 103.27 133.708 103.236C132.705 103.003 132.15 102.694 132.15 101.645V94.2114C132.15 94.1309 132.18 94.053 132.236 93.9948C133.36 92.8217 134.309 92.3854 135.285 92.3854C136.771 92.3854 137.636 93.3032 137.636 95.112V101.645C137.636 102.684 137.136 103.021 136.241 103.236C136.094 103.271 135.987 103.4 135.987 103.551V103.919C135.987 104.094 136.13 104.237 136.305 104.237H142.237C142.413 104.237 142.555 104.094 142.555 103.919V103.55C142.555 103.399 142.449 103.27 142.302 103.236C141.3 103.003 140.744 102.694 140.744 101.645Z" fill="#131416"/>
<path d="M177.798 103.248C176.744 103.248 176.42 102.708 176.42 101.575V90.8557C176.42 90.6803 176.278 90.5381 176.102 90.5381H171.819C171.643 90.5381 171.501 90.6803 171.501 90.8557V91.0789C171.501 91.2342 171.613 91.3667 171.767 91.3922L171.825 91.402C172.987 91.5639 173.312 92.1039 173.312 93.0487V100.651C173.312 100.734 173.279 100.814 173.221 100.873C172.074 102.019 171.151 102.454 170.177 102.454C168.717 102.454 167.825 101.537 167.825 99.7278V90.8557C167.825 90.6803 167.683 90.5381 167.507 90.5381H163.224C163.048 90.5381 162.906 90.6803 162.906 90.8557V91.0789C162.906 91.2342 163.019 91.3667 163.172 91.3922L163.23 91.402C164.392 91.5639 164.717 92.1039 164.717 93.0487V100.052C164.717 103.021 166.365 104.641 168.879 104.641C170.298 104.641 171.516 103.982 172.724 102.697C172.928 102.479 173.312 102.618 173.312 102.917V103.979C173.312 104.154 173.454 104.296 173.63 104.296H173.988L178.029 104.201C178.201 104.197 178.339 104.056 178.339 103.883V103.566C178.339 103.391 178.196 103.248 178.021 103.248H177.798Z" fill="#131416"/>
<path d="M192.949 103.249C191.922 103.249 191.28 102.763 191.28 101.575V90.5432C191.28 90.3677 191.138 90.2256 190.962 90.2256H190.153C190.047 90.2256 189.947 90.2787 189.888 90.367L189.15 91.4737C189.029 91.6555 188.763 91.6633 188.613 91.5046C187.923 90.7759 186.873 90.2256 185.253 90.2256C181.55 90.2256 178.496 93.0871 178.496 97.8654C178.496 101.51 180.577 104.614 184.253 104.614C185.56 104.614 186.687 104.032 187.479 103.256C187.707 103.033 188.172 103.185 188.172 103.504V103.979C188.172 104.155 188.314 104.297 188.49 104.297H188.847L193.206 104.2C193.379 104.197 193.517 104.056 193.517 103.883V103.566C193.517 103.391 193.375 103.249 193.199 103.249H192.949ZM185.307 102.725C182.794 102.725 181.739 99.7281 181.739 96.8665C181.739 93.5731 183.172 91.4944 185.064 91.4944C187.334 91.4944 188.172 93.5191 188.172 95.6788V101.479C188.172 101.568 188.135 101.652 188.069 101.711C187.356 102.332 186.467 102.725 185.307 102.725Z" fill="#131416"/>
<path d="M202.928 90.1716C201.729 90.2515 200.589 90.9365 199.716 92.4231C199.532 92.7361 198.901 92.6139 198.901 92.2509V90.6972C198.901 90.5218 198.759 90.3796 198.583 90.3796H194.3C194.124 90.3796 193.982 90.5218 193.982 90.6972V90.9204C193.982 91.0757 194.094 91.2082 194.248 91.2337L194.306 91.2435C195.468 91.4054 195.793 92.8982 195.793 93.843V101.564C195.793 102.578 195.178 102.949 193.917 103.237C193.77 103.27 193.664 103.399 193.664 103.55V103.919C193.664 104.094 193.806 104.236 193.982 104.236H201.07C201.245 104.236 201.388 104.094 201.388 103.919V103.567C201.388 103.409 201.27 103.275 201.114 103.25C199.438 102.982 198.901 102.59 198.901 101.564V95.417C198.901 95.3759 198.909 95.335 198.925 95.2971C199.526 93.8728 200.649 92.9781 201.955 92.8982C202.527 92.8588 203.113 93.006 203.597 93.2666C203.822 93.3869 204.129 93.2607 204.158 93.0082L204.438 90.5469C204.456 90.3927 204.359 90.2471 204.206 90.2186C203.857 90.1535 203.418 90.129 202.928 90.1716Z" fill="#131416"/>
<path d="M236.231 90.1716C235.033 90.2515 233.892 90.9365 233.019 92.4231C232.835 92.7361 232.204 92.6139 232.204 92.2509V90.6972C232.204 90.5218 232.062 90.3796 231.886 90.3796H227.603C227.428 90.3796 227.285 90.5218 227.285 90.6972V90.9204C227.285 91.0757 227.397 91.2082 227.551 91.2337L227.61 91.2435C228.772 91.4054 229.096 92.8982 229.096 93.843V101.564C229.096 102.577 228.763 102.949 227.538 103.236C227.391 103.27 227.285 103.399 227.285 103.55V103.919C227.285 104.094 227.428 104.236 227.603 104.236H234.373C234.549 104.236 234.691 104.094 234.691 103.919V103.567C234.691 103.409 234.573 103.275 234.417 103.25C232.741 102.982 232.204 102.59 232.204 101.564V95.417C232.204 95.3759 232.213 95.335 232.228 95.2971C232.829 93.8728 233.952 92.9781 235.258 92.8982C235.83 92.8588 236.416 93.006 236.901 93.2666C237.125 93.3869 237.432 93.2607 237.461 93.0082L237.742 90.5469C237.759 90.3927 237.663 90.2471 237.51 90.2186C237.16 90.1535 236.721 90.129 236.231 90.1716Z" fill="#131416"/>
<path d="M220.781 90.2256C216.835 90.2256 214.105 93.0872 214.105 97.7574C214.105 101.348 216.349 104.614 220.403 104.614C223.339 104.614 225.351 102.792 226.127 100.588C226.18 100.437 226.104 100.273 225.957 100.208L225.738 100.111C225.592 100.046 225.423 100.1 225.331 100.23C224.522 101.386 223.159 102.266 221.511 102.266C219.082 102.266 217.411 100.351 217.154 97.2266C217.139 97.0457 217.284 96.8936 217.467 96.8936H225.975C226.151 96.8936 226.294 96.7498 226.288 96.5736C226.167 92.9767 224.431 90.2256 220.781 90.2256ZM220.349 91.4404C222.104 91.4404 222.898 92.991 223.083 95.3168C223.098 95.4983 222.953 95.6518 222.77 95.6518H217.506C217.319 95.6518 217.173 95.4921 217.194 95.3074C217.473 92.9407 218.517 91.4404 220.349 91.4404Z" fill="#131416"/>
<path d="M243.701 90.2256C240.512 90.2256 238.484 91.8183 238.511 94.3289C238.539 99.3232 246.484 97.8114 246.512 101.267C246.539 102.617 245.376 103.481 243.971 103.481C242.6 103.481 241.396 102.456 240.471 100.497C240.38 100.304 240.13 100.245 239.967 100.382L238.139 101.917C238.013 102.023 237.988 102.208 238.093 102.334C239.07 103.497 241.266 104.614 243.701 104.614C246.998 104.614 248.998 102.644 248.998 100.376C248.998 94.9229 240.944 96.5156 240.944 93.2491C240.944 92.0883 242.025 91.3594 243.403 91.3594C244.724 91.3594 245.768 92.208 246.538 93.9051C246.633 94.1145 246.91 94.1718 247.072 94.0083L248.695 92.3664C248.807 92.2534 248.819 92.0745 248.71 91.9586C248.041 91.2449 246.492 90.2256 243.701 90.2256Z" fill="#131416"/>
<path fill-rule="evenodd" clip-rule="evenodd" d="M142.867 94.71C142.867 88.798 146.792 84.9375 152.459 84.9375C158.432 84.9375 161.756 90.1287 161.756 94.88C161.756 97.4879 160.931 99.7019 159.562 101.362C159.462 101.484 159.46 101.661 159.566 101.777C160.832 103.174 162.292 103.881 163.781 103.924C163.873 103.927 163.959 103.965 164.02 104.034L165.592 105.816C165.745 105.99 165.665 106.264 165.439 106.319C162.221 107.108 159.755 105.971 157.801 103.366C157.698 103.229 157.506 103.194 157.36 103.284C155.901 104.186 154.172 104.679 152.323 104.679C146.35 104.679 142.867 100.282 142.867 94.71ZM157.401 98.7972C157.562 99.0022 157.889 98.9468 157.951 98.6934C158.176 97.7642 158.283 96.7402 158.27 95.6628C158.216 91.4785 156.188 86.1793 151.891 86.2063C148.608 86.2556 146.791 90.3223 146.541 94.1177C146.527 94.325 146.718 94.4839 146.924 94.4478C150.403 93.8354 154.299 94.852 157.401 98.7972ZM146.544 96.0379C146.533 95.8812 146.642 95.7416 146.797 95.7147C151.063 94.9735 154.355 96.9577 156.258 100.806C156.351 100.995 156.446 101.179 156.542 101.36C156.602 101.472 156.591 101.609 156.509 101.706C155.627 102.748 154.417 103.372 152.891 103.384C148.851 103.434 146.816 99.8915 146.544 96.0379Z" fill="#131416"/>
<path fill-rule="evenodd" clip-rule="evenodd" d="M32 104.249V84.6001L42.85 78.3018L53.7 84.6001V104.249H32ZM41.8328 97.5283V100.761H35.3906V97.5283C35.3906 95.7429 36.8328 94.2956 38.6117 94.2956C40.3907 94.2956 41.8328 95.7429 41.8328 97.5283ZM47.0883 86.0435C45.2625 86.0435 43.7824 87.5289 43.7824 89.3613C43.7824 91.1937 45.2625 92.6791 47.0883 92.6791C48.914 92.6791 50.3942 91.1937 50.3942 89.3613C50.3942 87.5289 48.914 86.0435 47.0883 86.0435Z" fill="#131416"/>
</g>
<defs>
<clipPath id="clip0_1_333">
<rect width="217" height="29" fill="white" transform="translate(32 78)"/>
</clipPath>
</defs>
</svg>
