<svg width="18" height="18" viewBox="0 0 18 18" fill="none" xmlns="http://www.w3.org/2000/svg">
<g clip-path="url(#clip0_1_263)">
<path fill-rule="evenodd" clip-rule="evenodd" d="M2.1345 5.16525C2.157 4.944 2.07225 4.72575 1.90725 4.57725L0.22725 2.55225V2.25H5.44575L9.47925 11.0963L13.0253 2.25H18V2.55225L16.563 3.93C16.4392 4.0245 16.3778 4.17975 16.4032 4.3335V14.457C16.3778 14.61 16.4392 14.7653 16.563 14.8597L17.9662 16.2375V16.5397H10.9073V16.2375L12.3615 14.826C12.504 14.6835 12.504 14.6415 12.504 14.4233V6.24075L8.46225 16.5068H7.91625L3.21 6.24075V13.1213C3.171 13.41 3.267 13.7018 3.47025 13.9103L5.361 16.2037V16.5068H0V16.2037L1.89075 13.9103C2.09325 13.701 2.18325 13.4078 2.1345 13.1213V5.16525Z" fill="#0C0D0E"/>
</g>
<defs>
<clipPath id="clip0_1_263">
<rect width="18" height="18" fill="white"/>
</clipPath>
</defs>
</svg>
