<svg width="18" height="18" viewBox="0 0 18 18" fill="none" xmlns="http://www.w3.org/2000/svg">
<g clip-path="url(#clip0_1_262)">
<path d="M18 3.41766C17.3377 3.71166 16.626 3.90966 15.879 3.99891C16.6418 3.54216 17.2275 2.81841 17.5028 1.95591C16.7895 2.37891 15.999 2.68641 15.1575 2.85216C14.4847 2.13441 13.524 1.68591 12.462 1.68591C10.0777 1.68591 8.32575 3.91041 8.86425 6.21966C5.796 6.06591 3.075 4.59591 1.25325 2.36166C0.28575 4.02141 0.7515 6.19266 2.3955 7.29216C1.791 7.27266 1.221 7.10691 0.72375 6.83016C0.68325 8.54091 1.9095 10.1414 3.6855 10.4977C3.16575 10.6387 2.5965 10.6717 2.0175 10.5607C2.487 12.0277 3.8505 13.0949 5.4675 13.1249C3.915 14.3422 1.959 14.8859 0 14.6549C1.63425 15.7027 3.576 16.3139 5.661 16.3139C12.5175 16.3139 16.3912 10.5232 16.1572 5.32941C16.8787 4.80816 17.505 4.15791 18 3.41766Z" fill="#0C0D0E"/>
</g>
<defs>
<clipPath id="clip0_1_262">
<rect width="18" height="18" fill="white"/>
</clipPath>
</defs>
</svg>
