<svg width="280" height="184" viewBox="0 0 280 184" fill="none" xmlns="http://www.w3.org/2000/svg">
<rect width="280" height="184" fill="#F3CFBC"/>
<path d="M152.69 98.363L152.956 100.305H150.782L150.516 98.5553H150.467C149.695 99.7694 148.102 100.546 146.337 100.546C142.836 100.546 140.445 97.7521 140.445 94.2302C140.445 90.7083 142.836 87.9142 146.337 87.9142C148.174 87.9142 149.718 88.74 150.467 89.9052H150.516V83.2988H152.69V98.363ZM150.64 94.234C150.64 91.8056 149.095 89.9315 146.678 89.9315C144.264 89.9315 142.694 91.7792 142.694 94.234C142.694 96.6887 144.264 98.5364 146.678 98.5364C149.092 98.5327 150.64 96.6624 150.64 94.234Z" fill="#131416"/>
<path d="M170.693 85.0293H168.688V88.2307H165.559V90.248H168.688V94.0942C168.688 97.518 171.447 100.293 174.849 100.293H175.071V98.4569C172.653 98.4569 170.69 96.4849 170.69 94.049V90.2442H173.871V88.2307H170.69V85.0293H170.693Z" fill="#131416"/>
<path d="M214.412 85.0293H212.407V88.2307H209.277V90.248H212.407V94.0942C212.407 97.518 215.166 100.293 218.568 100.293H218.789V98.4569C216.372 98.4569 214.409 96.4849 214.409 94.049V90.2442H217.59V88.2307H214.409V85.0293H214.412Z" fill="#131416"/>
<path d="M178.297 90.0558V90.0521H178.248V88.3063H176.077V95.1086C176.077 95.1351 176.074 95.1652 176.074 95.1916V100.282H178.244V98.6796H178.248L178.27 94.5205C178.517 92.077 180.571 90.1727 183.064 90.1727V88.1592C181.22 88.1592 179.544 88.8794 178.297 90.0558Z" fill="#131416"/>
<path d="M154.035 95.6289H156.202C156.25 97.6387 157.648 98.6832 159.646 98.6832C161.719 98.6832 162.948 98.0044 162.948 96.7676C162.948 93.7623 154.541 97.107 154.541 91.6055C154.541 89.0602 157.071 87.9214 159.623 87.9214C162.611 87.9214 164.874 89.5692 164.9 92.5519H162.757C162.757 90.6854 161.385 89.7879 159.623 89.7879C158.252 89.7879 156.685 90.1763 156.685 91.5339C156.685 94.6862 165.091 91.3415 165.091 96.696C165.091 99.4335 162.344 100.527 159.601 100.527C156.588 100.527 154.155 98.9509 154.035 95.6289Z" fill="#131416"/>
<path d="M121.6 88.1591H119.426V100.308H121.6V88.1591Z" fill="#131416"/>
<path d="M112.938 90.8818H112.89L107.238 83.2988H104.27L111.66 92.9444V100.309H114.025V92.9444L121.416 83.2988H118.613L112.938 90.8818Z" fill="#131416"/>
<path d="M139.182 83.2988H137.008V100.309H139.182V83.2988Z" fill="#131416"/>
<path d="M129.647 98.5551C127.406 98.5551 125.839 96.9525 125.6 94.7729H135.505C135.505 90.5271 133.335 87.9102 129.479 87.9102C125.888 87.9102 123.332 90.6025 123.332 94.2149C123.332 97.8272 126.008 100.52 129.599 100.52C131.562 100.52 133.043 99.8409 134.032 98.8341L132.589 97.3823C131.96 98.1289 130.929 98.5551 129.647 98.5551ZM129.501 89.8483C131.551 89.8483 132.9 90.9871 133.118 92.9291H125.72C126.15 91.1342 127.526 89.8483 129.501 89.8483Z" fill="#131416"/>
<path d="M189.374 98.5551C187.133 98.5551 185.566 96.9525 185.323 94.7729H195.228C195.228 90.5271 193.058 87.9102 189.201 87.9102C185.611 87.9102 183.055 90.6025 183.055 94.2149C183.055 97.8272 185.731 100.52 189.322 100.52C191.286 100.52 192.766 99.8409 193.756 98.8341L192.312 97.3823C191.687 98.1289 190.656 98.5551 189.374 98.5551ZM189.228 89.8483C191.278 89.8483 192.628 90.9871 192.844 92.9291H185.446C185.878 91.1342 187.253 89.8483 189.228 89.8483Z" fill="#131416"/>
<path d="M202.917 98.5551C200.676 98.5551 199.109 96.9525 198.87 94.7729H208.775C208.775 90.5271 206.605 87.9102 202.748 87.9102C199.158 87.9102 196.602 90.6025 196.602 94.2149C196.602 97.8272 199.278 100.52 202.868 100.52C204.833 100.52 206.312 99.8409 207.302 98.8341L205.859 97.3823C205.23 98.1289 204.199 98.5551 202.917 98.5551ZM202.775 89.8483C204.824 89.8483 206.174 90.9871 206.391 92.9291H198.993C199.424 91.1342 200.795 89.8483 202.775 89.8483Z" fill="#131416"/>
<path d="M74.4148 94.2942C74.3511 94.2752 74.3473 94.1848 74.4111 94.1621C74.6884 94.0679 75.1756 93.9396 75.4642 94.098C75.9665 94.3733 76.4162 95.0822 76.6786 98.0083C76.6786 98.0046 76.2475 94.8409 74.4148 94.2942ZM78.2302 98.0046C78.4963 95.0822 78.9423 94.3695 79.4445 94.0943C79.7331 93.9359 80.2203 94.0642 80.4977 94.1584C80.5614 94.181 80.5576 94.2715 80.494 94.2904C78.6649 94.8409 78.2302 98.0046 78.2302 98.0046ZM95.538 91.7715C95.538 94.9427 94.6348 97.9065 93.0794 100.418C91.123 100.49 89.725 100.701 88.6494 100.957C88.8705 100.429 88.998 99.9729 89.1966 99.5996C89.6276 98.7851 90.306 98.1328 90.0211 96.8507C89.905 96.319 89.6276 96.0362 89.5901 95.6818C89.5713 95.4894 89.7025 95.316 89.8899 95.2745C90.0848 95.2331 90.3659 95.1388 90.6583 94.9351C90.7295 94.8861 90.7257 94.773 90.647 94.7316C90.3209 94.558 89.7924 94.6486 89.5226 94.7542C89.4627 94.7767 89.399 94.7767 89.3428 94.7466C88.9305 94.5467 87.1915 93.8341 86.8766 96.0023C86.8766 96.0023 85.28 96.8582 85.2088 99.1094C85.2013 99.3507 85.2013 99.5807 85.205 99.7994C85.22 99.9427 85.2351 100.09 85.2537 100.233C85.325 100.833 85.4225 101.447 85.4149 102.069C85.4149 102.073 85.4149 102.077 85.4149 102.081C84.8827 102.269 84.3542 102.394 83.6722 102.394C82.1018 102.394 81.206 101.017 80.6064 96.2323C80.4564 96.2474 80.3103 96.2436 80.1716 96.2209C80.0217 96.1983 79.8756 96.1606 79.7405 96.1117C79.7106 96.1003 79.6769 96.0852 79.6394 96.0664C79.5719 96.0362 79.5944 95.9344 79.6694 95.9344C79.7068 95.9344 79.7405 95.9344 79.7668 95.9344C79.9018 95.9268 80.0292 95.9005 80.1529 95.8665C80.2766 95.8325 80.389 95.7799 80.4902 95.7194C80.5427 95.6893 80.5913 95.6553 80.6363 95.6139C81.1873 94.9351 81.0149 94.3054 81.0149 94.3054C81.4421 93.8906 82.158 93.9133 82.158 93.9133C84.9952 93.9849 85.3438 92.997 85.8872 91.9223C86.4306 90.8476 87.5138 90.497 87.019 89.6938C86.5243 88.8906 85.175 89.2828 83.6085 89.9087C82.3191 90.4253 81.7907 91.2285 80.5427 91.8318C80.4789 91.7564 80.4977 91.6395 80.5576 91.5452C80.8088 91.1456 81.0749 90.7534 81.3597 90.3763C81.6483 89.9992 81.9518 89.6373 82.2704 89.2865C82.3491 89.1961 82.4316 89.1131 82.514 89.0264L82.6377 88.8981L82.7614 88.7775C82.9263 88.6191 83.1025 88.4645 83.2823 88.3137C83.6459 88.0083 84.0357 87.7104 84.4442 87.3974C84.8527 87.0769 85.2875 86.7526 85.7035 86.285C85.9097 86.0513 86.112 85.776 86.2582 85.4442C86.4043 85.1123 86.4793 84.7315 86.4681 84.3732C86.4606 84.015 86.3781 83.687 86.2732 83.3967C86.1683 83.1025 86.0333 82.8424 85.8909 82.5972C85.6023 82.1071 85.2725 81.681 84.9277 81.2775C84.5792 80.8777 84.2118 80.5045 83.8408 80.1462L82.7315 79.1017C82.3679 78.7548 81.7008 78.1025 81.3747 77.733C81.0487 77.3634 80.7376 76.9788 80.5014 76.5452C80.4077 76.383 80.1566 76.4886 80.2128 76.6696V76.6734C80.3815 77.1711 80.6289 77.6462 80.9099 78.0836C81.4721 78.9698 82.4578 80.0633 83.0724 80.8514C83.3873 81.2435 83.6834 81.6357 83.957 82.0354C84.2343 82.435 84.4854 82.8424 84.6804 83.2458C84.8715 83.6492 84.9914 84.0565 84.9614 84.3582C84.9502 84.509 84.9089 84.6334 84.8378 84.7616C84.7666 84.8899 84.6579 85.0218 84.5192 85.1576C84.2381 85.4291 83.8445 85.6968 83.4323 85.972C83.02 86.2473 82.5778 86.5263 82.1431 86.8469C81.9256 87.0052 81.712 87.1749 81.4983 87.3559L81.3409 87.4917L81.1911 87.6274C81.0898 87.7179 80.9886 87.8046 80.8912 87.8989C80.4977 88.2647 80.1192 88.6531 79.7668 89.0641C79.5832 89.2752 79.407 89.4902 79.2347 89.7127C79.2308 89.7164 79.2308 89.7164 79.2308 89.7202C78.3127 90.8816 78.0503 91.4171 77.4507 91.4661H77.3944C76.7947 91.4171 76.5324 90.8778 75.6142 89.7202C75.6104 89.7164 75.6104 89.7164 75.6104 89.7127C75.438 89.4902 75.2619 89.2752 75.0782 89.0641C74.7259 88.6531 74.3473 88.2685 73.9538 87.8989C73.8564 87.8046 73.7552 87.7179 73.654 87.6274L73.5041 87.4917L73.3467 87.3559C73.1368 87.1787 72.9194 87.009 72.7021 86.8469C72.2672 86.5263 71.8288 86.2435 71.4127 85.972C71.0005 85.7005 70.6069 85.4329 70.3258 85.1576C70.1834 85.0218 70.0785 84.8899 70.0072 84.7616C69.9361 84.6334 69.8948 84.509 69.8836 84.3582C69.8536 84.0565 69.9735 83.6455 70.1647 83.2458C70.3596 82.8424 70.6107 82.435 70.8881 82.0354C71.1617 81.6357 71.4577 81.2435 71.7726 80.8514C72.391 80.0633 72.7583 79.5882 73.3205 78.702C73.6015 78.2609 73.8489 77.7895 74.0176 77.2918V77.288C74.0738 77.107 73.8227 77.0014 73.7289 77.1636C73.4891 77.5972 73.1818 77.9818 72.8557 78.3514C72.5296 78.7209 72.1699 79.064 71.8063 79.4109L71.0042 80.1462C70.6369 80.5045 70.2659 80.874 69.9173 81.2775C69.5725 81.681 69.2427 82.1071 68.9541 82.5972C68.8117 82.8424 68.6768 83.1063 68.5719 83.3967C68.4669 83.6907 68.3845 84.015 68.3769 84.3732C68.3657 84.7315 68.4407 85.1123 68.5868 85.4442C68.733 85.776 68.9353 86.0513 69.1415 86.285C69.5576 86.7488 69.9923 87.0769 70.4008 87.3974C70.8094 87.7142 71.1991 88.0083 71.5627 88.3137C71.7426 88.4645 71.9187 88.6191 72.0836 88.7775L72.2073 88.8981L72.331 89.0264C72.4135 89.1131 72.4959 89.1961 72.5746 89.2865C72.8969 89.6373 73.1967 90.003 73.4853 90.3763C73.774 90.7534 74.0401 91.1418 74.2874 91.5452C74.3436 91.6358 74.2424 91.7337 74.3024 91.8318C73.0544 91.2247 72.5259 90.4216 71.2366 89.9087C69.67 89.2828 68.3207 88.8869 67.826 89.6938C67.3313 90.497 68.4144 90.8514 68.9579 91.9223C69.5013 92.997 69.8461 93.9849 72.687 93.9133C72.687 93.9133 73.3992 93.8906 73.8302 94.3054C73.8302 94.3054 73.6615 94.9125 74.1787 95.5762C74.2349 95.629 74.2986 95.678 74.3698 95.7194C74.4711 95.7799 74.5835 95.8325 74.7072 95.8665C74.8271 95.9043 74.9583 95.9268 75.0932 95.9344C75.1194 95.9344 75.1531 95.9381 75.1907 95.9344C75.2656 95.9344 75.288 96.0324 75.2206 96.0664C75.1832 96.0852 75.1494 96.1003 75.1194 96.1117C74.9845 96.1644 74.8384 96.1983 74.6884 96.2209C74.6322 96.2286 74.5723 96.2361 74.5122 96.2361C74.6097 96.6132 74.7597 97.1072 75.3031 97.4389C75.3181 97.4503 75.3256 97.4691 75.3218 97.4879C75.2619 97.635 75.0295 98.2949 75.4117 98.9473C75.4493 99.0114 75.4755 99.0792 75.483 99.1508C75.5804 99.9653 75.4493 101.643 76.5511 102.209C76.6636 102.247 76.761 102.262 76.836 102.254C77.1583 102.217 77.1546 101.945 77.1546 101.696V101.425C77.1546 101.029 76.7573 100.818 76.4499 100.467C76.2363 100.226 76.3675 99.9841 76.465 99.8635C76.4874 99.8372 76.5286 99.8522 76.5286 99.89V99.8937C76.5174 100.014 76.5886 100.124 76.701 100.169C76.9522 100.278 77.1695 100.459 77.3007 100.557C77.3382 100.584 77.3794 100.599 77.4244 100.599C77.4693 100.599 77.5106 100.584 77.548 100.557C77.6792 100.459 77.9003 100.278 78.1478 100.169C78.2564 100.12 78.3276 100.011 78.3201 99.8937V99.89C78.3164 99.856 78.3614 99.8372 78.3839 99.8635C78.4813 99.988 78.6125 100.226 78.3988 100.467C78.0916 100.814 77.6943 101.025 77.6943 101.425V101.696C77.6943 101.941 77.6943 102.198 78.0128 102.254C78.2265 102.292 78.5225 102.156 78.8036 101.934C78.931 101.828 79.0435 101.707 79.1447 101.575C79.2459 101.44 79.3358 101.296 79.407 101.138C79.4783 100.983 79.5308 100.818 79.5719 100.648C79.6095 100.478 79.6319 100.301 79.6544 100.12L79.7143 99.5769C79.7519 99.215 79.7969 98.853 79.8605 98.4948C79.8343 98.8567 79.8306 99.2225 79.8306 99.5845V100.131C79.8306 100.316 79.8268 100.497 79.8043 100.689C79.7818 100.878 79.7405 101.066 79.6806 101.247C79.6207 101.428 79.5382 101.606 79.437 101.775C79.2984 102.002 79.1259 102.213 78.9198 102.386C78.5675 102.718 78.0765 102.967 77.4244 102.967C77.3607 102.967 77.3007 102.963 77.2445 102.959C77.6005 104.019 78.4963 106.624 80.3665 108.106C79.9992 108.133 79.6244 108.148 79.2496 108.148C70.2659 108.148 62.9537 100.795 62.9537 91.7527C62.9537 82.7141 70.2621 75.3574 79.2496 75.3574C88.2296 75.3762 95.538 82.733 95.538 91.7715ZM87.926 95.5988C87.926 95.5988 88.0047 95.2293 88.2559 95.1162C88.5069 95.0068 88.8292 95.1953 88.8292 95.1953C88.8292 95.1953 88.7505 95.5649 88.4995 95.678C88.2521 95.7874 87.926 95.5988 87.926 95.5988ZM97.2771 91.7715C97.2771 81.7676 89.1891 73.6304 79.2459 73.6304C69.3027 73.6304 61.2109 81.7676 61.2109 91.7715C61.2109 101.775 69.2989 109.913 79.2422 109.913C89.1854 109.913 97.2771 101.775 97.2771 91.7715Z" fill="#131416"/>
</svg>
